<?xml version="1.0" encoding="iso-8859-1"?>
<!-- Uploaded to: SVG Repo, www.svgrepo.com, Transformed by: SVG Repo Mixer Tools -->
<svg fill="#000000" version="1.1" id="Layer_1" xmlns="http://www.w3.org/2000/svg" xmlns:xlink="http://www.w3.org/1999/xlink" 
	 viewBox="0 0 512 512" xml:space="preserve">
<g>
	<g>
		<g>
			<path d="M454.613,0H57.387C25.707,0,0,25.707,0,57.387v397.227C0,486.293,25.707,512,57.387,512h397.227
				c31.68,0,57.387-25.707,57.387-57.387V57.387C512,25.707,486.293,0,454.613,0z M490.667,454.613
				c0,19.947-16.107,36.053-36.053,36.053H57.387c-19.947,0-36.053-16.107-36.053-36.053V57.387
				c0-19.947,16.107-36.053,36.053-36.053h397.227c19.947,0,36.053,16.107,36.053,36.053V454.613z"/>
			<polygon points="170.667,362.667 197.333,362.667 197.333,265.6 268.8,265.6 268.8,243.2 197.333,243.2 197.333,170.667 
				275.2,170.667 275.2,148.267 170.667,148.267 			"/>
			<rect x="304" y="138.667" width="26.667" height="224"/>
		</g>
	</g>
</g>
</svg>